<svg xmlns="http://www.w3.org/2000/svg" xmlns:xlink="http://www.w3.org/1999/xlink" viewBox="0 0 400 300"><defs><linearGradient id="linear-gradient" x1="88.55" y1="192.7" x2="68.9" y2="220.55" gradientUnits="userSpaceOnUse"><stop offset="0"/><stop offset="1" stop-color="#fff"/></linearGradient><linearGradient id="linear-gradient-2" x1="183.53" y1="246.49" x2="162.64" y2="269.54" xlink:href="#linear-gradient"/><linearGradient id="linear-gradient-3" x1="240.21" y1="165.44" x2="206.61" y2="202.51" xlink:href="#linear-gradient"/><linearGradient id="linear-gradient-4" x1="318.96" y1="187.9" x2="289.59" y2="216.7" xlink:href="#linear-gradient"/></defs><title>ZZZ</title><g style="isolation:isolate"><g id="Layer_2" data-name="Layer 2"><path d="M183.2,292.52l-165.77-98c-5.28-3-9.8-7.83-4.66-11L179.14,87.65c2.5-1.55,6.29-2.56,8.82-1.09l174,101c5.28,3.06,6.22,11.63.94,14.69L205.05,292.36A22,22,0,0,1,183.2,292.52Z" fill="#3fc1c9"/><path d="M27.52,198.28l33.54-21.11,77.09,26.16-43.4,32S36.06,203.15,27.52,198.28Z" opacity="0.46" fill="url(#linear-gradient)" style="mix-blend-mode:multiply"/><path d="M132.72,263.18l33.54-21.11,38.55,20.32-38.1,21.9S141.26,268.06,132.72,263.18Z" opacity="0.46" fill="url(#linear-gradient-2)" style="mix-blend-mode:multiply"/><path d="M154.65,188.81l68.66-44.1,53,51.91-52.13,30S171.23,198.27,154.65,188.81Z" opacity="0.46" fill="url(#linear-gradient-3)" style="mix-blend-mode:multiply"/><path d="M48.53,110,130,120.51a9.19,9.19,0,0,1,8,8.72L141,197.09A7.61,7.61,0,0,1,132.7,205L94,201.67Z" fill="#f4aa06"/><polygon points="138.63 142.87 55.62 132.68 55.62 160.15 139.84 171.05 138.63 142.87" fill="#f29808"/><path d="M79.93,145.24c-5.32-.48-9.45-1.28-14.77-1.72L94,201.67,132.7,205a7.61,7.61,0,0,0,8.26-7.91L139,151.87C119.1,149.93,99.87,147,79.93,145.24Z" fill="#ea8c06"/><polyline points="53.51 112.46 125 135.57 125.94 208 71.66 185.38" fill="#85b23b"/><path d="M56.92,117.3c1.82-.41,63.23,21.61,63.23,21.61l.81,61.59-11.27-4.82,6.12,8.1L125.94,208,125,135.57,51.49,111.79" fill="#b8e06c"/><path d="M48.21,188.16l61.33,37a4.13,4.13,0,0,0,6.27-3.54V154.66a8.59,8.59,0,0,0-4.17-7.37l-61.3-36.74a4.13,4.13,0,0,0-6.26,3.55v66.73A8.56,8.56,0,0,0,48.21,188.16Z" fill="#f99a10"/><polygon points="41.3 114.06 45.69 110.82 46.55 114.1 41.3 114.06" fill="#f99a10"/><polygon points="109.68 228.19 114 225 111.07 223.54 109.68 228.19" fill="#f99a10"/><path d="M43.86,191.37l61.33,37a4.13,4.13,0,0,0,6.27-3.54V157.87a8.59,8.59,0,0,0-4.17-7.37L46,113.76a4.13,4.13,0,0,0-6.26,3.55V184A8.56,8.56,0,0,0,43.86,191.37Z" fill="#ffba31"/><path d="M46.21,188.4l55,33.25a3.71,3.71,0,0,0,5.63-3.18v-60.2a7.73,7.73,0,0,0-3.75-6.63l-55-33a3.71,3.71,0,0,0-5.62,3.19v60A7.7,7.7,0,0,0,46.21,188.4Z" fill="none" stroke="#f2f2f2" stroke-linecap="round" stroke-miterlimit="10" stroke-dasharray="2.98 2.98"/><ellipse cx="185.89" cy="252.35" rx="26" ry="15.23" fill="#ff912e"/><polygon points="159.89 252.35 159.89 247.95 162.72 251.46 159.89 252.35" fill="#e0944f"/><polygon points="211.88 247.95 211.88 252.35 208.59 252.35 211 248.82 211.88 247.95" fill="#e0944f"/><ellipse cx="185.89" cy="247.95" rx="26" ry="15.23" fill="#ffb92c"/><path d="M199.07,245.91a2,2,0,0,1,.21,1.15l-.1.4-4.74,0a2.16,2.16,0,0,0,.09-.4,1.78,1.78,0,0,0-.28-.86,2.6,2.6,0,0,0-1.15-1.05,5.19,5.19,0,0,0-2.23-.58,4.81,4.81,0,0,0-2.12.33q-1,.43-.77,1.12a4.11,4.11,0,0,0,1,1.49,18.07,18.07,0,0,1,1.44,1.65,1.73,1.73,0,0,1,.26,1.83,4.09,4.09,0,0,1-2.31,1.8,13.65,13.65,0,0,1-5,1,16.09,16.09,0,0,1-5.5-.78l-2.73,1.17-3.2-1.56,2.65-1.14a6,6,0,0,1-1.27-1.14,3.38,3.38,0,0,1-.63-1.06,3.48,3.48,0,0,1-.16-.86,1.86,1.86,0,0,1,0-.6l.09-.23h4.75a3.78,3.78,0,0,0-.11.48,2,2,0,0,0,.38,1.08,3.56,3.56,0,0,0,1.57,1.34,6.74,6.74,0,0,0,2.76.72,5.74,5.74,0,0,0,2.54-.41q1-.42.74-1.11a4.1,4.1,0,0,0-1-1.49,15.2,15.2,0,0,1-1.45-1.65,1.7,1.7,0,0,1-.2-1.84A4.42,4.42,0,0,1,185,243a13.06,13.06,0,0,1,4.83-.95,13.93,13.93,0,0,1,5.15.8l2.72-1.17,3,1.62-2.73,1.17A3.89,3.89,0,0,1,199.07,245.91Z" fill="#ea8b24"/><ellipse cx="185.93" cy="248.13" rx="21.82" ry="12.78" fill="none" stroke="#f7931e" stroke-miterlimit="10" stroke-width="6"/><ellipse cx="185.89" cy="241.37" rx="26" ry="15.23" fill="#ff912e"/><polygon points="159.89 241.37 159.89 236.97 162.72 240.49 159.89 241.37" fill="#e0944f"/><polygon points="211.88 236.97 211.88 241.37 208.59 241.37 211 237.84 211.88 236.97" fill="#e0944f"/><ellipse cx="185.89" cy="236.97" rx="26" ry="15.23" fill="#ffb92c"/><path d="M199.07,234.93a2,2,0,0,1,.21,1.15l-.1.4-4.74,0a2.16,2.16,0,0,0,.09-.4,1.78,1.78,0,0,0-.28-.86,2.6,2.6,0,0,0-1.15-1.05,5.19,5.19,0,0,0-2.23-.58,4.81,4.81,0,0,0-2.12.33q-1,.43-.77,1.12a4.11,4.11,0,0,0,1,1.49,18.07,18.07,0,0,1,1.44,1.65,1.73,1.73,0,0,1,.26,1.83,4.09,4.09,0,0,1-2.31,1.8,13.65,13.65,0,0,1-5,1,16.09,16.09,0,0,1-5.5-.78l-2.73,1.17-3.2-1.56,2.65-1.14a6,6,0,0,1-1.27-1.14,3.38,3.38,0,0,1-.63-1.06,3.48,3.48,0,0,1-.16-.86,1.86,1.86,0,0,1,0-.6l.09-.23h4.75a3.78,3.78,0,0,0-.11.48,2,2,0,0,0,.38,1.08,3.56,3.56,0,0,0,1.57,1.34,6.74,6.74,0,0,0,2.76.72,5.74,5.74,0,0,0,2.54-.41q1-.42.74-1.11a4.1,4.1,0,0,0-1-1.49,15.2,15.2,0,0,1-1.45-1.65,1.7,1.7,0,0,1-.2-1.84A4.42,4.42,0,0,1,185,232a13.06,13.06,0,0,1,4.83-.95,13.93,13.93,0,0,1,5.15.8l2.72-1.17,3,1.62-2.73,1.17A3.89,3.89,0,0,1,199.07,234.93Z" fill="#ea8b24"/><ellipse cx="185.93" cy="237.15" rx="21.82" ry="12.78" fill="none" stroke="#f7931e" stroke-miterlimit="10" stroke-width="2"/><ellipse cx="185.84" cy="234.92" rx="26" ry="15.23" fill="#ff912e"/><polygon points="159.84 234.92 159.84 230.52 162.67 234.03 159.84 234.92" fill="#e0944f"/><polygon points="211.84 230.52 211.84 234.92 208.54 234.92 210.96 231.39 211.84 230.52" fill="#e0944f"/><ellipse cx="185.84" cy="230.52" rx="26" ry="15.23" fill="#ffb92c"/><path d="M199,228.48a2,2,0,0,1,.21,1.15l-.1.4-4.74,0a2.16,2.16,0,0,0,.09-.4,1.78,1.78,0,0,0-.28-.86,2.6,2.6,0,0,0-1.15-1.05,5.19,5.19,0,0,0-2.23-.58,4.81,4.81,0,0,0-2.12.33q-1,.43-.77,1.12a4.11,4.11,0,0,0,1,1.49,18.07,18.07,0,0,1,1.44,1.65,1.73,1.73,0,0,1,.26,1.83,4.09,4.09,0,0,1-2.31,1.8,13.65,13.65,0,0,1-5,1,16.09,16.09,0,0,1-5.5-.78l-2.73,1.17-3.2-1.56,2.65-1.14a6,6,0,0,1-1.27-1.14,3.38,3.38,0,0,1-.63-1.06,3.48,3.48,0,0,1-.16-.86,1.86,1.86,0,0,1,0-.6l.09-.23h4.75a3.78,3.78,0,0,0-.11.48,2,2,0,0,0,.38,1.08,3.56,3.56,0,0,0,1.57,1.34,6.74,6.74,0,0,0,2.76.72,5.74,5.74,0,0,0,2.54-.41q1-.42.74-1.11a4.1,4.1,0,0,0-1-1.49,15.2,15.2,0,0,1-1.45-1.65,1.7,1.7,0,0,1-.2-1.84,4.42,4.42,0,0,1,2.42-1.83,13.06,13.06,0,0,1,4.83-.95,13.93,13.93,0,0,1,5.15.8l2.72-1.17,3,1.62L197.9,227A3.89,3.89,0,0,1,199,228.48Z" fill="#ea8b24"/><ellipse cx="185.89" cy="230.7" rx="21.82" ry="12.78" fill="none" stroke="#f7931e" stroke-miterlimit="10" stroke-width="6"/><ellipse cx="185.84" cy="222.95" rx="26" ry="15.23" fill="#ff912e"/><polygon points="159.84 222.96 159.84 218.56 162.67 222.07 159.84 222.96" fill="#e0944f"/><polygon points="211.84 218.56 211.84 222.96 208.54 222.96 210.96 219.42 211.84 218.56" fill="#e0944f"/><ellipse cx="185.84" cy="218.56" rx="26" ry="15.23" fill="#ffb92c"/><path d="M199,216.52a2,2,0,0,1,.21,1.15l-.1.4-4.74,0a2.16,2.16,0,0,0,.09-.4,1.78,1.78,0,0,0-.28-.86,2.6,2.6,0,0,0-1.15-1.05,5.19,5.19,0,0,0-2.23-.58,4.81,4.81,0,0,0-2.12.33q-1,.43-.77,1.12a4.11,4.11,0,0,0,1,1.49,18.07,18.07,0,0,1,1.44,1.65,1.73,1.73,0,0,1,.26,1.83,4.09,4.09,0,0,1-2.31,1.8,13.65,13.65,0,0,1-5,1,16.09,16.09,0,0,1-5.5-.78l-2.73,1.17-3.2-1.56,2.65-1.14a6,6,0,0,1-1.27-1.14,3.38,3.38,0,0,1-.63-1.06,3.48,3.48,0,0,1-.16-.86,1.86,1.86,0,0,1,0-.6l.09-.23h4.75a3.78,3.78,0,0,0-.11.48,2,2,0,0,0,.38,1.08,3.56,3.56,0,0,0,1.57,1.34,6.74,6.74,0,0,0,2.76.72,5.74,5.74,0,0,0,2.54-.41q1-.42.74-1.11a4.1,4.1,0,0,0-1-1.49,15.2,15.2,0,0,1-1.45-1.65,1.7,1.7,0,0,1-.2-1.84,4.42,4.42,0,0,1,2.42-1.83,13.06,13.06,0,0,1,4.83-.95,13.93,13.93,0,0,1,5.15.8l2.72-1.17,3,1.62L197.9,215A3.89,3.89,0,0,1,199,216.52Z" fill="#ea8b24"/><ellipse cx="185.89" cy="218.74" rx="21.82" ry="12.78" fill="none" stroke="#f7931e" stroke-miterlimit="10" stroke-width="2"/><ellipse cx="175.68" cy="209.92" rx="26" ry="15.23" fill="#ff912e"/><polygon points="149.68 209.92 149.68 205.53 152.51 209.04 149.68 209.92" fill="#e0944f"/><polygon points="201.68 205.53 201.68 209.92 198.38 209.92 200.79 206.39 201.68 205.53" fill="#e0944f"/><ellipse cx="175.68" cy="205.52" rx="26" ry="15.23" fill="#ffb92c"/><path d="M188.86,203.49a2,2,0,0,1,.21,1.15l-.1.4-4.74,0a2.16,2.16,0,0,0,.09-.4,1.78,1.78,0,0,0-.28-.86,2.6,2.6,0,0,0-1.15-1.05,5.19,5.19,0,0,0-2.23-.58,4.81,4.81,0,0,0-2.12.33q-1,.43-.77,1.12a4.11,4.11,0,0,0,1,1.49,18.07,18.07,0,0,1,1.44,1.65,1.73,1.73,0,0,1,.26,1.83,4.09,4.09,0,0,1-2.31,1.8,13.65,13.65,0,0,1-5,1,16.09,16.09,0,0,1-5.5-.78l-2.73,1.17-3.2-1.56,2.65-1.14a6,6,0,0,1-1.27-1.14,3.38,3.38,0,0,1-.63-1.06,3.48,3.48,0,0,1-.16-.86,1.86,1.86,0,0,1,0-.6l.09-.23h4.75a3.78,3.78,0,0,0-.11.48,2,2,0,0,0,.38,1.08,3.56,3.56,0,0,0,1.57,1.34,6.74,6.74,0,0,0,2.76.72,5.74,5.74,0,0,0,2.54-.41q1-.42.74-1.11a4.1,4.1,0,0,0-1-1.49,15.2,15.2,0,0,1-1.45-1.65,1.7,1.7,0,0,1-.2-1.84,4.42,4.42,0,0,1,2.42-1.83,13.06,13.06,0,0,1,4.83-.95,13.93,13.93,0,0,1,5.15.8l2.72-1.17,3,1.62L187.73,202A3.89,3.89,0,0,1,188.86,203.49Z" fill="#ea8b24"/><ellipse cx="175.72" cy="205.71" rx="21.82" ry="12.78" fill="none" stroke="#f7931e" stroke-miterlimit="10" stroke-width="2"/><path d="M212.35,5c13.91,8.71,48.9,29,60.83,36.27,2.7,1.66,3.11,4.13,3.16,7.3l0,148.07a4.72,4.72,0,0,1-6.08.93l-58.71-33.18c-2.92-1.72-5.22-3.49-5.22-6.88l.51-149.83C206.82,4.41,209.6,3.25,212.35,5Z" fill="#f3f3f3"/><path d="M206.93,6.6l19.09,11v4.12a2,2,0,0,0,1,1.71L241.78,32a1.3,1.3,0,0,0,2-1.13v-3l27.73,16.26a1.76,1.76,0,0,1,.87,1.52V193.7a1.2,1.2,0,0,1-1.8,1L206.31,157.5a6.37,6.37,0,0,0,2.83,5.91c3.33,2.12,61.84,35.23,61.84,35.23s4.63,2.09,6-3.43v-149a6.09,6.09,0,0,0-2.51-4.94c-2.68-1.95-62.36-36.64-62.36-36.64S207.89,2.71,206.93,6.6Z" fill="#124577"/><path d="M217.23,108.45v-.24a3.32,3.32,0,0,1,5-2.87l31.12,18.16a3.32,3.32,0,0,1,1.65,2.87h0a3.32,3.32,0,0,1-5,2.88l-31.12-17.93A3.32,3.32,0,0,1,217.23,108.45Z" fill="#124577"/><path d="M235.1,107.39a19.64,19.64,0,0,0-7,1.5c-3.52,1.51,6.86,4.57,6.86,4.57" fill="#f2ae16"/><path d="M236,121.13c3,1.69,5.89,3.67,8.87,5.43a12.21,12.21,0,0,0,1.45-10.74c-2-6.24-8.28-9.8-14-8a10.56,10.56,0,0,0-6.83,7.37C229.05,117.17,232.52,119.17,236,121.13Z" fill="#ea8b24"/><path d="M236,121.13c2.28,1.28,4.48,2.72,6.71,4.11a12.43,12.43,0,0,0,.36-8.78c-2-6.24-8.28-9.8-14-8a10.31,10.31,0,0,0-6.07,5.37C227.41,116.23,231.7,118.71,236,121.13Z" fill="#ffd008"/><path d="M236.36,120.77c1.87,1,3.68,2.21,5.51,3.36a10.9,10.9,0,0,0,.28-7.61c-1.77-5.47-7.25-8.59-12.24-7a9,9,0,0,0-5.28,4.64C228.56,116.34,232.45,118.58,236.36,120.77Z" fill="none" stroke="#f7931e" stroke-miterlimit="10"/><path d="M236,121.13l.59.34a2.7,2.7,0,0,0-.51-1.64,3.12,3.12,0,0,0-1.33-1q-.79-.32-1.57-.56a5.66,5.66,0,0,1-1.32-.58,1,1,0,0,1-.53-.89,1,1,0,0,1,.42-.82,1.61,1.61,0,0,1,1.08-.32,2.41,2.41,0,0,1,1.07.28,3.12,3.12,0,0,1,.68.43l.25.27,1.42-1.45-.25-.27a3.73,3.73,0,0,0-.85-.62,4.76,4.76,0,0,0-1.36-.52l0-1.51-2,0,0,1.49a3.54,3.54,0,0,0-2.12,1.07,2.9,2.9,0,0,0-.82,2,3.66,3.66,0,0,0,0,.37Z" fill="#ea8b24"/><path d="M251.72,68.1C253.11,79.25,248,89,240.22,89.8s-15.16-7.53-16.56-18.68,3.75-20.87,11.5-21.71S250.32,56.94,251.72,68.1Z" fill="#124577"/><polygon points="227.96 70.85 230.24 67.26 234.32 73.49 243.39 59.48 246.98 62.42 234.67 81.09 227.96 70.85" fill="#fff"/><path d="M84.38,131a15.68,15.68,0,0,1,.28-2" fill="none" stroke="#42210b" stroke-linecap="round" stroke-miterlimit="10" stroke-width="2"/><path d="M87.07,120.56c5-13.52,19-36.74,56.3-48.51C200.78,54,227.25,93.41,235.15,108.8" fill="none" stroke="#42210b" stroke-linecap="round" stroke-miterlimit="10" stroke-width="2" stroke-dasharray="3.9 8.77"/><path d="M237,112.76c.52,1.18.76,1.85.76,1.85" fill="none" stroke="#42210b" stroke-linecap="round" stroke-miterlimit="10" stroke-width="2"/><path d="M151.39,50a34,34,0,0,0-12,2.87c-6,2.75,12,7.63,12,7.63" fill="#f2ae16"/><ellipse cx="153.45" cy="70.3" rx="18.74" ry="20.53" transform="translate(-14.59 54.46) rotate(-19.23)" fill="#ea8b24"/><ellipse cx="147.85" cy="71.54" rx="18.74" ry="20.53" transform="translate(-15.31 52.68) rotate(-19.23)" fill="#ffd008"/><ellipse cx="147.85" cy="71.54" rx="16.43" ry="17.99" transform="translate(-15.31 52.68) rotate(-19.23)" fill="none" stroke="#f7931e" stroke-miterlimit="10"/><path d="M151.78,61.87a6.45,6.45,0,0,1,1.5,1l.43.46-2.41,2.56q-.16-.18-.44-.45a5.39,5.39,0,0,0-1.19-.71,4.17,4.17,0,0,0-1.86-.44,2.79,2.79,0,0,0-1.85.6,1.81,1.81,0,0,0-.7,1.43,1.71,1.71,0,0,0,1,1.51,9.78,9.78,0,0,0,2.31,1q1.36.39,2.73.91a5.4,5.4,0,0,1,2.33,1.72,4.76,4.76,0,0,1,1,3.05,5.45,5.45,0,0,1-1.33,3.7,6.43,6.43,0,0,1-3.75,2v2.61H146V80.34a9.67,9.67,0,0,1-2-.52,8.92,8.92,0,0,1-1.6-.76,11.94,11.94,0,0,1-1.12-.79,6.28,6.28,0,0,1-.7-.63l-.22-.27L142.74,75q.18.21.52.54a6.32,6.32,0,0,0,1.49.89,5.43,5.43,0,0,0,2.42.56,3.46,3.46,0,0,0,2.27-.69,2.16,2.16,0,0,0,.81-1.73,1.73,1.73,0,0,0-1-1.52A9.39,9.39,0,0,0,147,72q-1.37-.38-2.73-.9a5.41,5.41,0,0,1-2.32-1.72,4.76,4.76,0,0,1-1-3.05,5,5,0,0,1,1.33-3.44A6.12,6.12,0,0,1,145.91,61V58.41h3.5V61A8.22,8.22,0,0,1,151.78,61.87Z" fill="#ea8b24"/><polyline points="287.54 192.44 253.76 209.92 296 236.33 327.73 221.21" opacity="0.46" fill="url(#linear-gradient-4)" style="mix-blend-mode:multiply"/><path d="M298.74,194c-.32-.39-9.59-2.51-11.2-1.59s.59,3.45,4.77,5.91,7.76,4.61,9.45,4.07,3.51-1.5,3.51-2.46v-9.75" fill="#1d3f75"/><path d="M319.34,211.71c0,.56,1.12,2.81,0,3.36s-8.66,2.32-10.2,4.44-1,3.75,0,4.31,18.58-2.61,18.58-2.61l-2.1-12" fill="#1d3f75"/><path d="M314.32,116.21s-1-4.18-7-6.06-5.21,11.47-5.21,11.47" fill="#1d3f75"/><path d="M302.85,136.87c-.63.27-15.83,11.53-14.53,28.78.79,10.41,8.37,27.91,8.37,27.91s12.24,7.79,20.16,5.81" fill="#f7931e"/><path d="M299.58,141.85s-4.07,17.66-2.56,28.64S314.32,213,314.32,213a42.5,42.5,0,0,0,16.39-1.57s-9.56-37.28-10.42-41.41,0-26.45,0-26.45" fill="#f7931e"/><path d="M305.34,111.36s-22.82-9.92-29-13.52c0,0,.3,7.35.62,8.28s18,18.34,26.28,19.75" fill="#1d3f75"/><path d="M319.5,142.69q-3.37-10.55-6-21.3c-.19-.76-1.36-.44-1.18.32q2.63,10.75,6,21.3C318.56,143.76,319.74,143.44,319.5,142.69Z" fill="#606060"/><path d="M282.1,118.69a26.46,26.46,0,0,1-6.41-4.47c.12-2.08.25-6.8-2.14-6.33-1.15.23-1,1.55-1,2.46a22.39,22.39,0,0,0,.13,2.41c-2.69,1.08-7-.43-8.44,2.28a.82.82,0,0,0,0,.82,1.49,1.49,0,0,0,.27.29,3.07,3.07,0,0,0-1.09.87.83.83,0,0,0,.16,1.28,2.2,2.2,0,0,0,.51.29.89.89,0,0,0,0,.23c0,.92.72,1.33,1.84,1.44a2.14,2.14,0,0,0,2.47,1.3,26.54,26.54,0,0,0,4.58-.85,45.1,45.1,0,0,1,4.74,2.29.83.83,0,0,0,1.06-1.2.8.8,0,0,0,.29-1.08.88.88,0,0,0,.05-1.06.81.81,0,0,0,.66-.41c.51.3,1,.58,1.56.85C282.21,120.56,283,119.16,282.1,118.69Z" fill="#fbb5ad"/><path d="M270.92,115.17a25.88,25.88,0,0,1-6.49.66.2.2,0,0,0,0,.41,26.31,26.31,0,0,0,6.6-.68C271.29,115.5,271.18,115.11,270.92,115.17Z" fill="#56403d"/><path d="M270,118a19.47,19.47,0,0,1-5.79.52c-.26,0-.26.39,0,.41a19.88,19.88,0,0,0,5.89-.53C270.32,118.29,270.21,117.9,270,118Z" fill="#56403d"/><path d="M269.58,119.59a13.58,13.58,0,0,1-3.62.54.2.2,0,0,0,0,.41,14,14,0,0,0,3.73-.55A.2.2,0,0,0,269.58,119.59Z" fill="#56403d"/><path d="M298,131.82c-.2,1.87.57,6.19,1.56,10,3.36,2,7.54,2.74,11.39,2.85a29.83,29.83,0,0,0,9.32-1.1c-.48-9.25-4-30.26-8.47-29.83-5.62.55-11.15,7.19-11.15,7.19-10.42,1.53-24-8.5-24-8.5l-2.87,8.79A36.49,36.49,0,0,0,298,131.82Z" fill="#1d3f75"/><path d="M307,196.28a126.49,126.49,0,0,1-6.94-44.72.25.25,0,0,0-.5,0,126.9,126.9,0,0,0,7,44.85C306.63,196.72,307.12,196.59,307,196.28Z" fill="#fff"/><path d="M302.55,120.68a26.57,26.57,0,0,1-11.36-1.18c-.31-.1-.44.38-.13.49a26.9,26.9,0,0,0,11.5,1.2C302.87,121.15,302.87,120.65,302.55,120.68Z" fill="#204472"/><path d="M298,131.82h2.86l-1.3,10S298.17,134.52,298,131.82Z" fill="#204472"/><path d="M307.81,109.38c-1.8.95-4-.59-5.51-1.55-1.8-1.16-3.62-3.18-2.59-5.46.15-.34-.39-.54-.55-.2-1.07,2.37.61,4.65,2.52,6,1.7,1.15,4.28,2.9,6.37,1.79C308.39,109.73,308.15,109.2,307.81,109.38Z" fill="#009245"/><path d="M299.18,100.5s-4.37,11.93-.27,14.31c4.5,2.61,9.2-1.86,9.2-1.86s4.47-10.31,0-13S299.88,99,299.18,100.5Z" fill="#fbb5ad"/><path d="M299.93,109.87a.88.88,0,0,1-.31-.17,35.55,35.55,0,0,1,1.66-3.15.33.33,0,0,0-.58-.33,35.55,35.55,0,0,0-1.77,3.38.35.35,0,0,0,.05.4,1.66,1.66,0,0,0,.77.52C300.16,110.66,300.33,110,299.93,109.87Z" fill="#56403d"/><path d="M314.09,106.55c.52-2.51-.63-4.24-2.25-6.21q-.2-.24-.41-.46A3.64,3.64,0,0,0,312.8,99a.34.34,0,0,0-.1-.57,2.08,2.08,0,0,0-1.66.17,4.93,4.93,0,0,0-.48-1.67.34.34,0,0,0-.57-.05,1.8,1.8,0,0,0-.44,1.46A9.66,9.66,0,0,0,302.89,97a5.56,5.56,0,0,0-2.34,1,3.31,3.31,0,0,0-1.81-.32,3,3,0,0,0-2.73,2.46c-.21,1.54,1.13,2.58,2.51,2.82a4.21,4.21,0,0,0,2.11-.19c-.63.51-1.13,1.27,0,2,2,1.3,3.52.38,3.26,1.52-.21.93.84,1.88,1.72,2.22,0,.16,0,.58.06,1.15a2.81,2.81,0,0,1,1.4.42.36.36,0,0,1,.52.25c.28,1.58-.41,2.93-1.26,4.33a12.8,12.8,0,0,0,4.19-2.59A11.43,11.43,0,0,0,314.09,106.55Zm-3.87-8.66c0,.06,0,.11,0,.17a.34.34,0,0,0,0,.11c0,.11,0,.23,0,.34A1.22,1.22,0,0,1,310.22,97.89Z" fill="#1c7377"/><path d="M301.85,110.87a1.86,1.86,0,0,1-2.57.11c-.22-.18-.48.18-.26.36a2.29,2.29,0,0,0,3.11-.13C302.33,111,302.05,110.67,301.85,110.87Z" fill="#56403d"/><path d="M301.92,109a.33.33,0,0,0-.23.62A.33.33,0,0,0,301.92,109Z" fill="#56403d"/><path d="M298.37,106.74a.33.33,0,0,0-.23.62A.33.33,0,0,0,298.37,106.74Z" fill="#56403d"/><path d="M305.15,110.52s2.83-4.15,3.56-2.18-3.83,4-3.83,4" fill="#fbb5ad"/></g></g></svg>