<svg xmlns="http://www.w3.org/2000/svg" xmlns:xlink="http://www.w3.org/1999/xlink" viewBox="0 0 400 300"><defs><linearGradient id="linear-gradient" x1="135.51" y1="256.49" x2="155.08" y2="220.93" gradientUnits="userSpaceOnUse"><stop offset="0" stop-color="#fff" stop-opacity="0"/><stop offset="1"/></linearGradient><linearGradient id="linear-gradient-2" x1="58.15" y1="207.1" x2="64.45" y2="195.65" xlink:href="#linear-gradient"/></defs><title>pp</title><g style="isolation:isolate"><g id="Layer_2" data-name="Layer 2"><path d="M205.38,282.94l152-89.83c4.84-2.72,9-7.18,4.27-10.1L209.1,95.08c-2.29-1.42-5.76-2.35-8.09-1L41.45,186.69c-4.84,2.81-5.71,10.66-.87,13.47l144.76,82.64A20.21,20.21,0,0,0,205.38,282.94Z" fill="#3d44ae"/><polygon points="138.15 172.12 65.66 214.47 165.86 271.67 247.21 222.46 138.15 172.12" opacity="0.5" fill="url(#linear-gradient)" style="mix-blend-mode:multiply"/><path d="M195.55,33.54h0a82.1,82.1,0,0,0-82.1,82.1v59.12c0,33.84,36.76,61.27,82.1,61.27s82.1-27.43,82.1-61.27V115.65A82.1,82.1,0,0,0,195.55,33.54Z" fill="#00ff1f"/><path d="M247.92,52.41c1.09,16,2.61,32,3.3,48,1.87,43.36-3.72,92.7-37.83,123.66A89,89,0,0,1,196.5,236c44.9-.38,81.15-27.65,81.15-61.25V115.65A81.93,81.93,0,0,0,247.92,52.41Z" fill="#606060" opacity="0.46"/><path d="M237.7,41.14c-7.39-9.11-23.48-15.43-42.14-15.43S160.8,32,153.41,41.14h-4.32V52.37c0,14.72,20.8,26.66,46.47,26.66S242,67.09,242,52.37V41.14Z" fill="#77431f"/><ellipse cx="195.55" cy="41.14" rx="46.47" ry="26.66" fill="#895630"/><path d="M136.11,71.6a81.23,81.23,0,0,0-12.56,47.88c.24,4.48,7.24,4.51,7,0a74.73,74.73,0,0,1,11.61-44.34C144.57,71.32,138.52,67.8,136.11,71.6Z" fill="#fff"/><path d="M127.4,126.74a3.56,3.56,0,0,0-3.5,3.5v.38a3.5,3.5,0,0,0,7,0v-.38A3.54,3.54,0,0,0,127.4,126.74Z" fill="#fff"/><polyline points="163.32 187.28 165.08 190.82 165.48 188.04" fill="#fcd11a"/><ellipse cx="184.33" cy="180.71" rx="21.78" ry="11.28" transform="translate(-60.18 97.96) rotate(-25.73)" fill="#fcd11a"/><polygon points="202.56 168.37 203.95 171.26 202.56 171.26 202.56 168.37" fill="#fcd11a"/><ellipse cx="182.94" cy="177.83" rx="21.78" ry="11.28" transform="translate(-59.07 97.07) rotate(-25.73)" fill="#fede17"/><path d="M200,169.6c2.35,4.88-3.6,12-13,16.52s-18.77,4.83-21.12-.06,3.55-12.29,13-16.84S197.66,164.71,200,169.6Z" fill="#fea500"/><path d="M183.84,175.67c1.39,1.74,1.36,3.19-1,5a7.11,7.11,0,0,1-7.09,1.42l-1.85,1.47-1.36-.78,1.88-1.49a4.29,4.29,0,0,1-1.67-3.49l3.69-1.32a3.4,3.4,0,0,0,.9,2.61l2.26-1.8c-1.41-1.75-1.45-3.18.89-5s4.94-2.39,7.15-1.41l1.07-.85,1.37.77-1.13.89a3.45,3.45,0,0,1,1.3,2.74l-3.61,1.4a3,3,0,0,0-.63-1.89Zm-3.49,4c.51-.41.59-.74.2-1.35l-2.08,1.64a1.73,1.73,0,0,0,1.84-.26l0,0m2.58-4.91,2-1.62a1.74,1.74,0,0,0-1.84.24l0,0c-.49.39-.59.72-.16,1.34" fill="#fff039"/><polyline points="228.92 184.27 227.23 187.83 229.66 186.44" fill="#fcd11a"/><ellipse cx="247.07" cy="196.73" rx="11.28" ry="21.78" transform="translate(-38.28 332.08) rotate(-63.91)" fill="#fcd11a"/><polygon points="268.04 203.43 266.63 206.31 265.77 205.21 268.04 203.43" fill="#fcd11a"/><ellipse cx="248.48" cy="193.85" rx="11.28" ry="21.78" transform="translate(-34.9 331.74) rotate(-63.91)" fill="#fede17"/><path d="M265.5,202.19c-2.38,4.87-11.64,4.57-21,0s-15.39-11.77-13-16.64,11.86-4.81,21.26-.2S267.89,197.32,265.5,202.19Z" fill="#fea500"/><path d="M250.73,193.22c-.51,2.17-1.66,3-4.57,2.35a7.11,7.11,0,0,1-5.5-4.7l-2.3-.55-.23-1.55,2.34.56a4.29,4.29,0,0,1,1.71-3.47l3.32,2.08a3.4,3.4,0,0,0-1.5,2.32l2.81.67c.5-2.19,1.61-3.11,4.52-2.42s4.93,2.41,5.53,4.75l1.33.32.24,1.55-1.4-.34a3.45,3.45,0,0,1-1.35,2.71l-3.33-2a3,3,0,0,0,1.1-1.66Zm-5.26-.3c.63.15.95,0,1.18-.68l-2.58-.62a1.73,1.73,0,0,0,1.34,1.28l.05,0m5.45-1,2.53.6a1.74,1.74,0,0,0-1.33-1.3h-.05c-.61-.15-.93,0-1.15.7" fill="#fff039"/><path d="M167.65,27v-.38a5.3,5.3,0,0,1,8-4.58l49.69,29a5.3,5.3,0,0,1,2.63,4.58h0a5.3,5.3,0,0,1-8,4.6L170.31,31.61A5.3,5.3,0,0,1,167.65,27Z" fill="#351d0c"/><path d="M196.19,25.33a31.35,31.35,0,0,0-11.13,2.4C179.43,30.14,196,35,196,35" fill="#f2ae16"/><path d="M197.66,47.27c4.81,2.7,9.4,5.86,14.16,8.67a19.49,19.49,0,0,0,2.32-17.15c-3.23-10-13.21-15.65-22.31-12.7a16.86,16.86,0,0,0-10.9,11.77C186.53,40.95,192.08,44.14,197.66,47.27Z" fill="#ea8b24"/><path d="M197.66,47.27c3.64,2,7.15,4.35,10.71,6.57a19.85,19.85,0,0,0,.57-14c-3.23-10-13.21-15.65-22.31-12.7a16.47,16.47,0,0,0-9.69,8.58C183.91,39.44,190.76,43.4,197.66,47.27Z" fill="#ffd008"/><path d="M198.2,46.7c3,1.67,5.88,3.53,8.79,5.37a17.41,17.41,0,0,0,.45-12.15c-2.83-8.73-11.58-13.71-19.55-11.13a14.42,14.42,0,0,0-8.44,7.41C185.75,39.62,192,43.19,198.2,46.7Z" fill="none" stroke="#f7931e" stroke-miterlimit="10"/><path d="M197.66,47.27l.94.55a4.32,4.32,0,0,0-.82-2.62,5,5,0,0,0-2.12-1.64q-1.26-.51-2.5-.9a9,9,0,0,1-2.11-.93,1.58,1.58,0,0,1-.85-1.42,1.67,1.67,0,0,1,.67-1.31,2.57,2.57,0,0,1,1.72-.51,3.85,3.85,0,0,1,1.71.45,5,5,0,0,1,1.08.68q.26.25.4.43l2.27-2.32-.39-.43a6,6,0,0,0-1.36-1,7.59,7.59,0,0,0-2.16-.84l0-2.41L190.95,33l0,2.39a5.66,5.66,0,0,0-3.38,1.7,4.64,4.64,0,0,0-1.3,3.15,5.84,5.84,0,0,0,0,.58C190.05,43,193.85,45.13,197.66,47.27Z" fill="#ea8b24"/><polyline points="158.56 207.07 160.32 210.61 160.72 207.83" fill="#fcd11a"/><ellipse cx="179.57" cy="200.5" rx="21.78" ry="11.28" transform="translate(-69.25 97.86) rotate(-25.73)" fill="#fcd11a"/><polygon points="197.8 188.16 199.19 191.05 197.8 191.05 197.8 188.16" fill="#fcd11a"/><ellipse cx="178.18" cy="197.62" rx="21.78" ry="11.28" transform="translate(-68.13 96.97) rotate(-25.73)" fill="#fede17"/><path d="M195.26,189.39c2.35,4.88-3.6,12-13,16.52s-18.77,4.83-21.12-.06,3.55-12.29,13-16.84S192.9,184.5,195.26,189.39Z" fill="#fea500"/><path d="M179.08,195.46c1.39,1.74,1.36,3.19-1,5a7.11,7.11,0,0,1-7.09,1.42l-1.85,1.47-1.36-.78,1.88-1.49a4.29,4.29,0,0,1-1.67-3.49l3.69-1.32a3.4,3.4,0,0,0,.9,2.61l2.26-1.8c-1.41-1.75-1.45-3.18.89-5s4.94-2.39,7.15-1.41l1.07-.85,1.37.77-1.13.89a3.45,3.45,0,0,1,1.3,2.74l-3.61,1.4a3,3,0,0,0-.63-1.89Zm-3.49,4c.51-.41.59-.74.2-1.35l-2.08,1.64a1.73,1.73,0,0,0,1.84-.26l0,0m2.58-4.91,2-1.62a1.74,1.74,0,0,0-1.84.24l0,0c-.49.39-.59.72-.16,1.34" fill="#fff039"/><polyline points="139.71 146.87 138.02 150.44 140.45 149.04" fill="#fcd11a"/><ellipse cx="157.86" cy="159.33" rx="11.28" ry="21.78" transform="translate(-54.66 231.01) rotate(-63.91)" fill="#fcd11a"/><polygon points="178.83 166.03 177.42 168.91 176.56 167.81 178.83 166.03" fill="#fcd11a"/><ellipse cx="159.27" cy="156.45" rx="11.28" ry="21.78" transform="translate(-51.29 230.67) rotate(-63.91)" fill="#fede17"/><path d="M176.29,164.79c-2.38,4.87-11.64,4.57-21,0s-15.39-11.77-13-16.64,11.86-4.81,21.26-.2S178.68,159.92,176.29,164.79Z" fill="#fea500"/><path d="M161.52,155.82c-.51,2.17-1.66,3-4.57,2.35a7.11,7.11,0,0,1-5.5-4.7l-2.3-.55-.23-1.55,2.34.56a4.29,4.29,0,0,1,1.71-3.47l3.32,2.08a3.4,3.4,0,0,0-1.5,2.32l2.81.67c.5-2.19,1.61-3.11,4.52-2.42s4.93,2.41,5.53,4.75l1.33.32.24,1.55-1.4-.34a3.45,3.45,0,0,1-1.35,2.71l-3.33-2a3,3,0,0,0,1.1-1.66Zm-5.26-.3c.63.15.95,0,1.18-.68l-2.58-.62a1.73,1.73,0,0,0,1.34,1.28l.05,0m5.45-1,2.53.6a1.74,1.74,0,0,0-1.33-1.3h-.05c-.61-.15-.93,0-1.15.7" fill="#fff039"/><path d="M274.65,162a34,34,0,0,0-3.3-11.88c-3-5.93-7.19,12.29-7.19,12.29" fill="#f2ae16"/><ellipse cx="254.42" cy="164.79" rx="20.53" ry="18.74" transform="translate(-42.47 103.61) rotate(-21.29)" fill="#ea8b24"/><ellipse cx="252.98" cy="159.24" rx="20.53" ry="18.74" transform="translate(-40.55 102.71) rotate(-21.29)" fill="#ffd008"/><ellipse cx="252.98" cy="159.24" rx="17.99" ry="16.43" transform="translate(-40.55 102.71) rotate(-21.29)" fill="none" stroke="#f7931e" stroke-miterlimit="10"/><path d="M262.79,162.82a6.45,6.45,0,0,1-1,1.53l-.44.45-2.65-2.31q.18-.16.44-.46a5.39,5.39,0,0,0,.67-1.21,4.17,4.17,0,0,0,.37-1.88,2.79,2.79,0,0,0-.66-1.83,1.81,1.81,0,0,0-1.46-.65,1.71,1.71,0,0,0-1.48,1,9.78,9.78,0,0,0-.87,2.34q-.34,1.37-.81,2.76a5.4,5.4,0,0,1-1.64,2.39,4.76,4.76,0,0,1-3,1.08,5.45,5.45,0,0,1-3.75-1.2,6.43,6.43,0,0,1-2.16-3.68l-2.61.1-.14-3.5,2.52-.1a9.67,9.67,0,0,1,.45-2,8.92,8.92,0,0,1,.7-1.62,11.94,11.94,0,0,1,.75-1.14,6.28,6.28,0,0,1,.6-.72l.27-.23,2.51,2.33q-.2.19-.52.54a6.32,6.32,0,0,0-.84,1.52,5.43,5.43,0,0,0-.47,2.43,3.46,3.46,0,0,0,.77,2.25,2.16,2.16,0,0,0,1.76.75,1.73,1.73,0,0,0,1.48-1,9.39,9.39,0,0,0,.87-2.36q.33-1.38.8-2.76a5.41,5.41,0,0,1,1.64-2.38,4.76,4.76,0,0,1,3-1.08,5,5,0,0,1,3.49,1.21,6.12,6.12,0,0,1,2.05,3.55l2.58-.1.14,3.5-2.61.1A8.22,8.22,0,0,1,262.79,162.82Z" fill="#ea8b24"/><polyline points="184.62 189.48 182.93 193.05 185.36 191.65" fill="#fcd11a"/><ellipse cx="202.77" cy="201.94" rx="11.28" ry="21.78" transform="translate(-67.78 295.22) rotate(-63.91)" fill="#fcd11a"/><polygon points="223.74 208.64 222.33 211.52 221.47 210.43 223.74 208.64" fill="#fcd11a"/><ellipse cx="204.18" cy="199.06" rx="11.28" ry="21.78" transform="translate(-64.4 294.87) rotate(-63.91)" fill="#fede17"/><path d="M221.21,207.4c-2.38,4.87-11.64,4.57-21,0s-15.39-11.77-13-16.64,11.86-4.81,21.26-.2S223.59,202.53,221.21,207.4Z" fill="#fea500"/><path d="M206.43,198.44c-.51,2.17-1.66,3-4.57,2.35a7.11,7.11,0,0,1-5.5-4.7l-2.3-.55-.23-1.55,2.34.56a4.29,4.29,0,0,1,1.71-3.47l3.32,2.08a3.4,3.4,0,0,0-1.5,2.32l2.81.67c.5-2.19,1.61-3.11,4.52-2.42s4.93,2.41,5.53,4.75l1.33.32.24,1.55-1.4-.34a3.45,3.45,0,0,1-1.35,2.71l-3.33-2a3,3,0,0,0,1.1-1.66Zm-5.26-.3c.63.15.95,0,1.18-.68l-2.58-.62a1.73,1.73,0,0,0,1.34,1.28l.05,0m5.45-1,2.53.6a1.74,1.74,0,0,0-1.33-1.3h-.05c-.61-.15-.93,0-1.15.7" fill="#fff039"/><polyline points="130.23 199.59 128.54 203.15 130.97 201.75" fill="#fcd11a"/><ellipse cx="148.38" cy="212.04" rx="11.28" ry="21.78" transform="translate(-107.31 252.03) rotate(-63.91)" fill="#fcd11a"/><polygon points="169.35 218.75 167.94 221.62 167.08 220.53 169.35 218.75" fill="#fcd11a"/><ellipse cx="149.79" cy="209.17" rx="11.28" ry="21.78" transform="translate(-103.94 251.69) rotate(-63.91)" fill="#fede17"/><path d="M166.82,217.5c-2.38,4.87-11.64,4.57-21,0s-15.39-11.77-13-16.64,11.86-4.81,21.26-.2S169.2,212.63,166.82,217.5Z" fill="#fea500"/><path d="M152,208.54c-.51,2.17-1.66,3-4.57,2.35a7.11,7.11,0,0,1-5.5-4.7l-2.3-.55-.23-1.55,2.34.56a4.29,4.29,0,0,1,1.71-3.47l3.32,2.08a3.4,3.4,0,0,0-1.5,2.32l2.81.67c.5-2.19,1.61-3.11,4.52-2.42s4.93,2.41,5.53,4.75l1.33.32.24,1.55-1.4-.34a3.45,3.45,0,0,1-1.35,2.71l-3.33-2a3,3,0,0,0,1.1-1.66Zm-5.26-.3c.63.15.95,0,1.18-.68l-2.58-.62a1.73,1.73,0,0,0,1.34,1.28l.05,0m5.45-1,2.53.6a1.74,1.74,0,0,0-1.33-1.3h-.05c-.61-.15-.93,0-1.15.7" fill="#fff039"/><polyline points="170.85 208.02 169.16 211.58 171.59 210.19" fill="#fcd11a"/><ellipse cx="189" cy="220.48" rx="11.28" ry="21.78" transform="translate(-92.13 293.24) rotate(-63.91)" fill="#fcd11a"/><polygon points="209.97 227.18 208.56 230.06 207.7 228.96 209.97 227.18" fill="#fcd11a"/><ellipse cx="190.41" cy="217.6" rx="11.28" ry="21.78" transform="translate(-88.76 292.89) rotate(-63.91)" fill="#fede17"/><path d="M207.43,225.94c-2.38,4.87-11.64,4.57-21,0s-15.39-11.77-13-16.64,11.86-4.81,21.26-.2S209.82,221.07,207.43,225.94Z" fill="#fea500"/><path d="M192.66,217c-.51,2.17-1.66,3-4.57,2.35a7.11,7.11,0,0,1-5.5-4.7l-2.3-.55-.23-1.55,2.34.56a4.29,4.29,0,0,1,1.71-3.47l3.32,2.08a3.4,3.4,0,0,0-1.5,2.32l2.81.67c.5-2.19,1.61-3.11,4.52-2.42s4.93,2.41,5.53,4.75l1.33.32.24,1.55-1.4-.34a3.45,3.45,0,0,1-1.35,2.71l-3.33-2a3,3,0,0,0,1.1-1.66Zm-5.26-.3c.63.15.95,0,1.18-.68l-2.58-.62a1.73,1.73,0,0,0,1.34,1.28l.05,0m5.45-1,2.53.6a1.74,1.74,0,0,0-1.33-1.3H194c-.61-.15-.93,0-1.15.7" fill="#fff039"/><polyline points="204.89 197 203.19 200.56 205.63 199.17" fill="#fcd11a"/><ellipse cx="223.04" cy="209.46" rx="11.28" ry="21.78" transform="translate(-63.17 317.63) rotate(-63.91)" fill="#fcd11a"/><polygon points="244 216.16 242.59 219.04 241.74 217.94 244 216.16" fill="#fcd11a"/><ellipse cx="224.45" cy="206.58" rx="11.28" ry="21.78" transform="translate(-59.8 317.28) rotate(-63.91)" fill="#fede17"/><path d="M241.47,214.92c-2.38,4.87-11.64,4.57-21,0s-15.39-11.77-13-16.64,11.86-4.81,21.26-.2S243.85,210,241.47,214.92Z" fill="#fea500"/><path d="M226.7,206c-.51,2.17-1.66,3-4.57,2.35a7.11,7.11,0,0,1-5.5-4.7l-2.3-.55-.23-1.55,2.34.56a4.29,4.29,0,0,1,1.71-3.47l3.32,2.08A3.4,3.4,0,0,0,220,203l2.81.67c.5-2.19,1.61-3.11,4.52-2.42s4.93,2.41,5.53,4.75l1.33.32.24,1.55-1.4-.34a3.45,3.45,0,0,1-1.35,2.71l-3.33-2a3,3,0,0,0,1.1-1.66Zm-5.26-.3c.63.15.95,0,1.18-.68l-2.58-.62a1.73,1.73,0,0,0,1.34,1.28l.05,0m5.45-1,2.53.6a1.74,1.74,0,0,0-1.33-1.3H228c-.61-.15-.93,0-1.15.7" fill="#fff039"/><polyline points="219.52 167.13 217.83 170.69 220.26 169.29" fill="#fcd11a"/><ellipse cx="237.67" cy="179.58" rx="11.28" ry="21.78" transform="translate(-28.15 314.04) rotate(-63.91)" fill="#fcd11a"/><polygon points="258.64 186.28 257.23 189.16 256.37 188.07 258.64 186.28" fill="#fcd11a"/><ellipse cx="239.08" cy="176.71" rx="11.28" ry="21.78" transform="translate(-24.78 313.69) rotate(-63.91)" fill="#fede17"/><path d="M256.1,185c-2.38,4.87-11.64,4.57-21,0s-15.39-11.77-13-16.64,11.86-4.81,21.26-.2S258.49,180.17,256.1,185Z" fill="#fea500"/><path d="M241.33,176.08c-.51,2.17-1.66,3-4.57,2.35a7.11,7.11,0,0,1-5.5-4.7l-2.3-.55-.23-1.55,2.34.56a4.29,4.29,0,0,1,1.71-3.47l3.32,2.08a3.4,3.4,0,0,0-1.5,2.32l2.81.67c.5-2.19,1.61-3.11,4.52-2.42s4.93,2.41,5.53,4.75l1.33.32L249,178l-1.4-.34a3.45,3.45,0,0,1-1.35,2.71l-3.33-2a3,3,0,0,0,1.1-1.66Zm-5.26-.3c.63.15.95,0,1.18-.68l-2.58-.62a1.73,1.73,0,0,0,1.34,1.28l.05,0m5.45-1,2.53.6a1.74,1.74,0,0,0-1.33-1.3h-.05c-.61-.15-.93,0-1.15.7" fill="#fff039"/><polyline points="120.12 156.11 118.42 159.67 120.86 158.28" fill="#fcd11a"/><ellipse cx="138.27" cy="168.57" rx="11.28" ry="21.78" transform="translate(-73.93 218.59) rotate(-63.91)" fill="#fcd11a"/><polygon points="159.24 175.27 157.83 178.15 156.97 177.05 159.24 175.27" fill="#fcd11a"/><ellipse cx="139.68" cy="165.69" rx="11.28" ry="21.78" transform="translate(-70.56 218.25) rotate(-63.91)" fill="#fede17"/><path d="M156.7,174c-2.38,4.87-11.64,4.57-21,0s-15.39-11.77-13-16.64,11.86-4.81,21.26-.2S159.08,169.15,156.7,174Z" fill="#fea500"/><path d="M141.93,165.06c-.51,2.17-1.66,3-4.57,2.35a7.11,7.11,0,0,1-5.5-4.7l-2.3-.55-.23-1.55,2.34.56a4.29,4.29,0,0,1,1.71-3.47l3.32,2.08a3.4,3.4,0,0,0-1.5,2.32l2.81.67c.5-2.19,1.61-3.11,4.52-2.42s4.93,2.41,5.53,4.75l1.33.32.24,1.55-1.4-.34a3.45,3.45,0,0,1-1.35,2.71l-3.33-2a3,3,0,0,0,1.1-1.66Zm-5.26-.3c.63.15.95,0,1.18-.68l-2.58-.62a1.73,1.73,0,0,0,1.34,1.28l.05,0m5.45-1,2.53.6a1.74,1.74,0,0,0-1.33-1.3h-.05c-.61-.15-.93,0-1.15.7" fill="#fff039"/><path d="M134.43,161.55a34,34,0,0,0-9,8.41c-3.89,5.37,14.22.71,14.22.71" fill="#f2ae16"/><ellipse cx="146.24" cy="178.2" rx="18.74" ry="20.53" transform="translate(-84.17 170.78) rotate(-48.78)" fill="#ea8b24"/><ellipse cx="141.98" cy="182.05" rx="18.74" ry="20.53" transform="translate(-88.51 168.89) rotate(-48.78)" fill="#ffd008"/><ellipse cx="141.98" cy="182.05" rx="16.43" ry="17.99" transform="translate(-88.51 168.89) rotate(-48.78)" fill="none" stroke="#f7931e" stroke-miterlimit="10"/><path d="M140.63,171.69a6.45,6.45,0,0,1,1.82.16l.6.18-.83,3.42q-.23-.08-.61-.18a5.39,5.39,0,0,0-1.39,0,4.17,4.17,0,0,0-1.84.54,2.79,2.79,0,0,0-1.32,1.43,1.81,1.81,0,0,0,.1,1.59,1.71,1.71,0,0,0,1.58.84,9.78,9.78,0,0,0,2.48-.31q1.37-.33,2.82-.56a5.4,5.4,0,0,1,2.88.35,4.76,4.76,0,0,1,2.35,2.18,5.45,5.45,0,0,1,.67,3.88,6.43,6.43,0,0,1-2.26,3.62l1.29,2.27-3,1.74-1.25-2.19a9.67,9.67,0,0,1-2,.54,8.92,8.92,0,0,1-1.76.12,11.94,11.94,0,0,1-1.36-.14,6.28,6.28,0,0,1-.92-.2l-.33-.13.91-3.3.72.22a6.32,6.32,0,0,0,1.74,0,5.43,5.43,0,0,0,2.38-.71,3.46,3.46,0,0,0,1.64-1.72,2.16,2.16,0,0,0-.15-1.91,1.73,1.73,0,0,0-1.58-.85,9.39,9.39,0,0,0-2.49.31q-1.38.34-2.82.56a5.41,5.41,0,0,1-2.87-.36,4.76,4.76,0,0,1-2.35-2.18,5,5,0,0,1-.54-3.65,6.12,6.12,0,0,1,2.2-3.46l-1.28-2.24,3-1.74,1.29,2.27A8.22,8.22,0,0,1,140.63,171.69Z" fill="#ea8b24"/><path d="M207.47,153.2a34,34,0,0,0-12,2.87c-6,2.75,12,7.63,12,7.63" fill="#f2ae16"/><ellipse cx="209.53" cy="173.51" rx="18.74" ry="20.53" transform="translate(-45.46 78.69) rotate(-19.23)" fill="#ea8b24"/><ellipse cx="203.92" cy="174.75" rx="18.74" ry="20.53" transform="translate(-46.18 76.91) rotate(-19.23)" fill="#ffd008"/><ellipse cx="203.92" cy="174.75" rx="16.43" ry="17.99" transform="translate(-46.18 76.91) rotate(-19.23)" fill="none" stroke="#f7931e" stroke-miterlimit="10"/><path d="M207.86,165.08a6.45,6.45,0,0,1,1.5,1l.43.46-2.41,2.56q-.16-.18-.44-.45a5.39,5.39,0,0,0-1.19-.71,4.17,4.17,0,0,0-1.86-.44,2.79,2.79,0,0,0-1.85.6,1.81,1.81,0,0,0-.7,1.43,1.71,1.71,0,0,0,1,1.51,9.78,9.78,0,0,0,2.31,1q1.36.39,2.73.91a5.4,5.4,0,0,1,2.33,1.72,4.76,4.76,0,0,1,1,3.05,5.45,5.45,0,0,1-1.33,3.7,6.43,6.43,0,0,1-3.75,2v2.61h-3.5v-2.52a9.67,9.67,0,0,1-2-.52,8.92,8.92,0,0,1-1.6-.76,11.94,11.94,0,0,1-1.12-.79,6.28,6.28,0,0,1-.7-.63l-.22-.27,2.42-2.42q.18.21.52.54a6.32,6.32,0,0,0,1.49.89,5.43,5.43,0,0,0,2.42.56,3.46,3.46,0,0,0,2.27-.69,2.16,2.16,0,0,0,.81-1.73,1.73,1.73,0,0,0-1-1.52,9.39,9.39,0,0,0-2.32-1q-1.37-.38-2.73-.9a5.41,5.41,0,0,1-2.32-1.72,4.76,4.76,0,0,1-1-3.05,5,5,0,0,1,1.33-3.44,6.12,6.12,0,0,1,3.62-1.93v-2.58h3.5v2.61A8.22,8.22,0,0,1,207.86,165.08Z" fill="#ea8b24"/><polyline points="175.69 100.78 173.99 104.35 176.43 102.95" fill="#fcd11a"/><ellipse cx="193.83" cy="113.24" rx="11.28" ry="21.78" transform="translate(6.88 237.51) rotate(-63.91)" fill="#fcd11a"/><polygon points="214.8 119.94 213.39 122.82 212.53 121.73 214.8 119.94" fill="#fcd11a"/><ellipse cx="195.24" cy="110.36" rx="11.28" ry="21.78" transform="translate(10.25 237.16) rotate(-63.91)" fill="#fede17"/><path d="M212.27,118.7c-2.38,4.87-11.64,4.57-21,0s-15.39-11.77-13-16.64,11.86-4.81,21.26-.2S214.65,113.83,212.27,118.7Z" fill="#fea500"/><path d="M197.49,109.74c-.51,2.17-1.66,3-4.57,2.35a7.11,7.11,0,0,1-5.5-4.7l-2.3-.55-.23-1.55,2.34.56a4.29,4.29,0,0,1,1.71-3.47l3.32,2.08a3.4,3.4,0,0,0-1.5,2.32l2.81.67c.5-2.19,1.61-3.11,4.52-2.42s4.93,2.41,5.53,4.75l1.33.32.24,1.55-1.4-.34a3.45,3.45,0,0,1-1.35,2.71l-3.33-2a3,3,0,0,0,1.1-1.66Zm-5.26-.3c.63.15.95,0,1.18-.68l-2.58-.62a1.73,1.73,0,0,0,1.34,1.28l.05,0m5.45-1,2.53.6a1.74,1.74,0,0,0-1.33-1.3h-.05c-.61-.15-.93,0-1.15.7" fill="#fff039"/><path d="M58,179.35,38.89,190.5a32.41,32.41,0,0,0-1,4.24l27.52,15.87L92.93,195.5Z" opacity="0.5" fill="url(#linear-gradient-2)" style="mix-blend-mode:multiply"/><ellipse cx="76.46" cy="188.85" rx="19.59" ry="11.48" fill="#fcd11a"/><polygon points="56.87 188.85 56.87 185.54 59 188.19 56.87 188.85" fill="#fcd11a"/><polygon points="96.04 185.54 96.04 188.85 93.56 188.85 95.38 186.19 96.04 185.54" fill="#fcd11a"/><ellipse cx="76.46" cy="185.68" rx="19.59" ry="11.48" fill="#fede17"/><ellipse cx="76.49" cy="185.68" rx="16.44" ry="9.63" fill="#fea500"/><path d="M86.08,182.35a1.53,1.53,0,0,1,.16.87l-.08.3-3.57,0a1.62,1.62,0,0,0,.07-.3,1.34,1.34,0,0,0-.21-.65,2,2,0,0,0-.86-.79,3.91,3.91,0,0,0-1.68-.44,3.62,3.62,0,0,0-1.6.25q-.75.32-.58.84a3.1,3.1,0,0,0,.76,1.12,13.62,13.62,0,0,1,1.08,1.25,1.3,1.3,0,0,1,.19,1.38A3.08,3.08,0,0,1,78,187.55a10.29,10.29,0,0,1-3.79.79,12.12,12.12,0,0,1-4.14-.59l-2.06.88-2.41-1.17,2-.86a4.51,4.51,0,0,1-1-.86,2.55,2.55,0,0,1-.47-.8,2.62,2.62,0,0,1-.12-.65,1.4,1.4,0,0,1,0-.45l.07-.17h3.58a2.85,2.85,0,0,0-.09.36,1.52,1.52,0,0,0,.29.81,2.68,2.68,0,0,0,1.18,1,5.08,5.08,0,0,0,2.08.54,4.33,4.33,0,0,0,1.91-.31q.74-.32.56-.84a3.09,3.09,0,0,0-.79-1.12,11.45,11.45,0,0,1-1.09-1.24,1.28,1.28,0,0,1-.15-1.39,3.33,3.33,0,0,1,1.82-1.38,9.84,9.84,0,0,1,3.64-.71A10.5,10.5,0,0,1,83,180l2.05-.88,2.24,1.22-2.06.88A2.93,2.93,0,0,1,86.08,182.35Z" fill="#fff039"/><ellipse cx="76.46" cy="182.59" rx="19.59" ry="11.48" fill="#fcd11a"/><polygon points="56.87 182.59 56.87 179.27 59 181.92 56.87 182.59" fill="#fcd11a"/><polygon points="96.04 179.27 96.04 182.59 93.56 182.59 95.38 179.93 96.04 179.27" fill="#fcd11a"/><ellipse cx="76.46" cy="179.41" rx="19.59" ry="11.48" fill="#fede17"/><ellipse cx="76.49" cy="179.41" rx="16.44" ry="9.63" fill="#fea500"/><path d="M86.08,176.08a1.53,1.53,0,0,1,.16.87l-.08.3-3.57,0a1.62,1.62,0,0,0,.07-.3,1.34,1.34,0,0,0-.21-.65,2,2,0,0,0-.86-.79,3.91,3.91,0,0,0-1.68-.44,3.62,3.62,0,0,0-1.6.25q-.75.32-.58.84a3.1,3.1,0,0,0,.76,1.12,13.62,13.62,0,0,1,1.08,1.25,1.3,1.3,0,0,1,.19,1.38A3.08,3.08,0,0,1,78,181.28a10.29,10.29,0,0,1-3.79.79,12.12,12.12,0,0,1-4.14-.59l-2.06.88-2.41-1.17,2-.86a4.51,4.51,0,0,1-1-.86,2.55,2.55,0,0,1-.47-.8,2.62,2.62,0,0,1-.12-.65,1.4,1.4,0,0,1,0-.45l.07-.17h3.58a2.85,2.85,0,0,0-.09.36,1.52,1.52,0,0,0,.29.81,2.68,2.68,0,0,0,1.18,1,5.08,5.08,0,0,0,2.08.54,4.33,4.33,0,0,0,1.91-.31q.74-.32.56-.84a3.09,3.09,0,0,0-.79-1.12,11.45,11.45,0,0,1-1.09-1.24,1.28,1.28,0,0,1-.15-1.39,3.33,3.33,0,0,1,1.82-1.38,9.84,9.84,0,0,1,3.64-.71,10.5,10.5,0,0,1,3.88.6l2.05-.88,2.24,1.22-2.06.88A2.93,2.93,0,0,1,86.08,176.08Z" fill="#fff039"/><ellipse cx="76.46" cy="175.79" rx="19.59" ry="11.48" fill="#fcd11a"/><polygon points="56.87 175.79 56.87 172.48 59 175.13 56.87 175.79" fill="#fcd11a"/><polygon points="96.04 172.48 96.04 175.79 93.56 175.79 95.38 173.13 96.04 172.48" fill="#fcd11a"/><ellipse cx="76.46" cy="172.62" rx="19.59" ry="11.48" fill="#fede17"/><ellipse cx="76.49" cy="172.62" rx="16.44" ry="9.63" fill="#fea500"/><path d="M86.08,169.28a1.53,1.53,0,0,1,.16.87l-.08.3-3.57,0a1.62,1.62,0,0,0,.07-.3,1.34,1.34,0,0,0-.21-.65,2,2,0,0,0-.86-.79,3.91,3.91,0,0,0-1.68-.44,3.62,3.62,0,0,0-1.6.25q-.75.32-.58.84a3.1,3.1,0,0,0,.76,1.12,13.62,13.62,0,0,1,1.08,1.25,1.3,1.3,0,0,1,.19,1.38A3.08,3.08,0,0,1,78,174.48a10.29,10.29,0,0,1-3.79.79,12.12,12.12,0,0,1-4.14-.59l-2.06.88-2.41-1.17,2-.86a4.51,4.51,0,0,1-1-.86,2.55,2.55,0,0,1-.47-.8,2.62,2.62,0,0,1-.12-.65,1.4,1.4,0,0,1,0-.45l.07-.17h3.58a2.85,2.85,0,0,0-.09.36,1.52,1.52,0,0,0,.29.81,2.68,2.68,0,0,0,1.18,1,5.08,5.08,0,0,0,2.08.54,4.33,4.33,0,0,0,1.91-.31q.74-.32.56-.84a3.09,3.09,0,0,0-.79-1.12,11.45,11.45,0,0,1-1.09-1.24,1.28,1.28,0,0,1-.15-1.39,3.33,3.33,0,0,1,1.82-1.38,9.84,9.84,0,0,1,3.64-.71,10.5,10.5,0,0,1,3.88.6l2.05-.88,2.24,1.22-2.06.88A2.93,2.93,0,0,1,86.08,169.28Z" fill="#fff039"/><ellipse cx="76.46" cy="169.6" rx="19.59" ry="11.48" fill="#fcd11a"/><polygon points="56.87 169.6 56.87 166.29 59 168.94 56.87 169.6" fill="#fcd11a"/><polygon points="96.04 166.29 96.04 169.6 93.56 169.6 95.38 166.94 96.04 166.29" fill="#fcd11a"/><ellipse cx="76.46" cy="166.43" rx="19.59" ry="11.48" fill="#fede17"/><ellipse cx="76.49" cy="166.43" rx="16.44" ry="9.63" fill="#fea500"/><path d="M86.08,163.1a1.53,1.53,0,0,1,.16.87l-.08.3-3.57,0a1.62,1.62,0,0,0,.07-.3,1.34,1.34,0,0,0-.21-.65,2,2,0,0,0-.86-.79,3.91,3.91,0,0,0-1.68-.44,3.62,3.62,0,0,0-1.6.25q-.75.32-.58.84a3.1,3.1,0,0,0,.76,1.12,13.62,13.62,0,0,1,1.08,1.25,1.3,1.3,0,0,1,.19,1.38A3.08,3.08,0,0,1,78,168.3a10.29,10.29,0,0,1-3.79.79,12.12,12.12,0,0,1-4.14-.59l-2.06.88-2.41-1.17,2-.86a4.51,4.51,0,0,1-1-.86,2.55,2.55,0,0,1-.47-.8,2.62,2.62,0,0,1-.12-.65,1.4,1.4,0,0,1,0-.45l.07-.17h3.58a2.85,2.85,0,0,0-.09.36,1.52,1.52,0,0,0,.29.81,2.68,2.68,0,0,0,1.18,1,5.08,5.08,0,0,0,2.08.54,4.33,4.33,0,0,0,1.91-.31q.74-.32.56-.84a3.09,3.09,0,0,0-.79-1.12,11.45,11.45,0,0,1-1.09-1.24,1.28,1.28,0,0,1-.15-1.39,3.33,3.33,0,0,1,1.82-1.38,9.84,9.84,0,0,1,3.64-.71,10.5,10.5,0,0,1,3.88.6l2.05-.88,2.24,1.22-2.06.88A2.93,2.93,0,0,1,86.08,163.1Z" fill="#fff039"/><ellipse cx="65.62" cy="159.72" rx="19.59" ry="11.48" fill="#fcd11a"/><polygon points="46.04 159.72 46.04 156.4 48.17 159.05 46.04 159.72" fill="#fcd11a"/><polygon points="85.21 156.4 85.21 159.72 82.73 159.72 84.55 157.06 85.21 156.4" fill="#fcd11a"/><ellipse cx="65.62" cy="156.54" rx="19.59" ry="11.48" fill="#fede17"/><ellipse cx="65.66" cy="156.54" rx="16.44" ry="9.63" fill="#fea500"/><path d="M75.25,153.21a1.53,1.53,0,0,1,.16.87l-.08.3-3.57,0a1.62,1.62,0,0,0,.07-.3,1.34,1.34,0,0,0-.21-.65,2,2,0,0,0-.86-.79,3.91,3.91,0,0,0-1.68-.44,3.62,3.62,0,0,0-1.6.25q-.75.32-.58.84a3.1,3.1,0,0,0,.76,1.12,13.62,13.62,0,0,1,1.08,1.25,1.3,1.3,0,0,1,.19,1.38,3.08,3.08,0,0,1-1.74,1.35,10.29,10.29,0,0,1-3.79.79,12.12,12.12,0,0,1-4.14-.59l-2.06.88-2.41-1.17,2-.86a4.51,4.51,0,0,1-1-.86,2.55,2.55,0,0,1-.47-.8,2.62,2.62,0,0,1-.12-.65,1.4,1.4,0,0,1,0-.45l.07-.17h3.58a2.85,2.85,0,0,0-.09.36,1.52,1.52,0,0,0,.29.81,2.68,2.68,0,0,0,1.18,1,5.08,5.08,0,0,0,2.08.54,4.33,4.33,0,0,0,1.91-.31q.74-.32.56-.84a3.09,3.09,0,0,0-.79-1.12A11.45,11.45,0,0,1,63,153.75a1.28,1.28,0,0,1-.15-1.39A3.33,3.33,0,0,1,64.65,151a9.84,9.84,0,0,1,3.64-.71,10.5,10.5,0,0,1,3.88.6l2.05-.88,2.24,1.22-2.06.88A2.93,2.93,0,0,1,75.25,153.21Z" fill="#fff039"/></g></g></svg>